<?xml version="1.0" encoding="utf-8"?>
<!-- Generator: Adobe Illustrator 21.1.0, SVG Export Plug-In . SVG Version: 6.00 Build 0)  -->
<svg version="1.1" id="Layer_1" xmlns="http://www.w3.org/2000/svg" xmlns:xlink="http://www.w3.org/1999/xlink" x="0px" y="0px"
	 viewBox="0 0 32.5 34.2" style="enable-background:new 0 0 32.5 34.2;" xml:space="preserve">
<style type="text/css">
	.st0{fill:#FFFFFF;}
	.st1{clip-path:url(#SVGID_2_);}
	.st2{fill:none;stroke:#1C1B1A;stroke-width:3.69;}
	.st3{fill:none;stroke:#1C1B1A;stroke-width:0.92;}
	.st4{fill:#1C1B1A;}
	.st5{clip-path:url(#SVGID_4_);}
	.st6{fill:none;stroke:#FFFFFF;stroke-width:0.69;}
	.st7{fill:none;stroke:#1C1B1A;stroke-width:0.8;}
</style>
<title>arrow</title>
<polygon class="st0" points="5.9,5.4 16.3,23.4 26.6,5.4 "/>
<g>
	<defs>
		<rect id="SVGID_1_" width="32.5" height="34.2"/>
	</defs>
	<clipPath id="SVGID_2_">
		<use xlink:href="#SVGID_1_"  style="overflow:visible;"/>
	</clipPath>
	<g class="st1">
		<polygon class="st2" points="5.9,5.4 16.3,23.4 26.6,5.4 		"/>
		<polyline class="st3" points="0.4,6.3 16.3,33.3 32.1,6.3 		"/>
	</g>
</g>
<polygon class="st4" points="5.9,1.8 16.3,19.8 26.6,1.8 "/>
<g>
	<defs>
		<rect id="SVGID_3_" width="32.5" height="34.2"/>
	</defs>
	<clipPath id="SVGID_4_">
		<use xlink:href="#SVGID_3_"  style="overflow:visible;"/>
	</clipPath>
	<g class="st5">
		<polygon class="st2" points="5.9,1.8 16.3,19.8 26.6,1.8 		"/>
		<polyline class="st3" points="0.4,2.7 16.3,29.7 32.1,2.7 		"/>
	</g>
</g>
<polygon class="st6" points="4.6,3.3 16.5,24.3 28.4,3.3 "/>
<polygon class="st4" points="8.7,5.4 16.7,19.6 24.8,5.4 "/>
<polygon class="st7" points="8.7,5.4 16.7,19.6 24.8,5.4 "/>
</svg>
