<svg id="Layer_1" data-name="Layer 1" xmlns="http://www.w3.org/2000/svg" xmlns:xlink="http://www.w3.org/1999/xlink" viewBox="0 0 32.51 34.17"><defs><style>.cls-1,.cls-4,.cls-5,.cls-7,.cls-8{fill:none;}.cls-2{fill:#fff;}.cls-3{clip-path:url(#clip-path);}.cls-4,.cls-5,.cls-8{stroke:#1c1b1a;}.cls-4{stroke-width:3.69px;}.cls-5{stroke-width:0.92px;}.cls-6{fill:#1c1b1a;}.cls-7{stroke:#fff;stroke-width:0.69px;}.cls-8{stroke-width:0.8px;}</style><clipPath id="clip-path" transform="translate(0 0)"><rect class="cls-1" width="32.51" height="34.17"/></clipPath></defs><title>arrow</title><polygon class="cls-2" points="26.65 28.72 16.25 10.72 5.86 28.72 26.65 28.72"/><g class="cls-3"><polygon class="cls-4" points="26.65 28.72 16.25 10.72 5.86 28.72 26.65 28.72"/><polyline class="cls-5" points="32.11 27.82 16.25 0.91 0.4 27.82"/></g><polygon class="cls-6" points="26.65 32.32 16.25 14.32 5.86 32.32 26.65 32.32"/><g class="cls-3"><polygon class="cls-4" points="26.65 32.32 16.25 14.32 5.86 32.32 26.65 32.32"/><polyline class="cls-5" points="32.11 31.43 16.25 4.51 0.4 31.43"/></g><polygon class="cls-7" points="27.91 30.82 16.01 9.87 4.1 30.82 27.91 30.82"/><polygon class="cls-6" points="23.82 28.77 15.78 14.61 7.73 28.77 23.82 28.77"/><polygon class="cls-8" points="23.82 28.77 15.78 14.61 7.73 28.77 23.82 28.77"/></svg>