<svg id="Layer_1" data-name="Layer 1" xmlns="http://www.w3.org/2000/svg" xmlns:xlink="http://www.w3.org/1999/xlink" viewBox="0 0 52 52"><defs><style>.cls-1,.cls-10,.cls-12,.cls-5,.cls-8{fill:none;}.cls-2{opacity:0.8;}.cls-3{clip-path:url(#clip-path);}.cls-4{fill:#1d1d1b;}.cls-12,.cls-5{stroke:#fff;}.cls-5{stroke-width:1.35px;}.cls-6{clip-path:url(#clip-path-2);}.cls-7{clip-path:url(#clip-path-3);}.cls-10,.cls-8{stroke:#1d1d1b;}.cls-8{stroke-width:0.85px;}.cls-9{clip-path:url(#clip-path-4);}.cls-10{stroke-width:0.27px;}.cls-11{clip-path:url(#clip-path-5);}.cls-12{stroke-width:0.68px;}.cls-13{clip-path:url(#clip-path-6);}.cls-14{clip-path:url(#clip-path-7);}.cls-15{clip-path:url(#clip-path-8);}.cls-16{clip-path:url(#clip-path-9);}</style><clipPath id="clip-path" transform="translate(0 0.3)"><rect class="cls-1" x="-5.25" y="-3.55" width="62.49" height="52.49"/></clipPath><clipPath id="clip-path-2" transform="translate(0 0.3)"><rect class="cls-1" x="-2.55" y="-0.85" width="57.26" height="47.26"/></clipPath><clipPath id="clip-path-3" transform="translate(0 0.3)"><rect class="cls-1" x="-6.6" y="-4.89" width="65.19" height="55.19"/></clipPath><clipPath id="clip-path-4" transform="translate(0 0.3)"><rect class="cls-1" x="-9" y="-7.3" width="70" height="60"/></clipPath><clipPath id="clip-path-5" transform="translate(0 0.3)"><rect class="cls-1" x="-1.2" y="0.5" width="54.4" height="44.4"/></clipPath><clipPath id="clip-path-6" transform="translate(0 0.3)"><rect class="cls-1" x="18.37" y="18.63" width="15.25" height="15.37"/></clipPath><clipPath id="clip-path-7" transform="translate(0 0.3)"><rect class="cls-1" x="18.37" y="18.63" width="15.25" height="15.37"/></clipPath><clipPath id="clip-path-8" transform="translate(0 0.3)"><rect class="cls-1" x="11.3" y="7.43" width="33.64" height="33.64"/></clipPath><clipPath id="clip-path-9" transform="translate(0 0.3)"><rect class="cls-1" x="11.3" y="11.56" width="33.64" height="33.64"/></clipPath></defs><title>btn_pop_less</title><g class="cls-2"><g class="cls-3"><rect class="cls-4" x="4.43" y="4.43" width="43.14" height="43.15"/><rect class="cls-5" x="4.43" y="4.43" width="43.14" height="43.15"/></g></g><g class="cls-2"><g class="cls-6"><rect class="cls-4" x="6.45" y="6.45" width="39.26" height="39.26"/></g></g><g class="cls-2"><g class="cls-7"><rect class="cls-8" x="2.83" y="2.83" width="46.34" height="46.34"/></g></g><g class="cls-2"><g class="cls-9"><rect class="cls-10" x="0.14" y="0.14" width="51.73" height="51.73"/></g></g><g class="cls-2"><g class="cls-11"><rect class="cls-12" x="8.14" y="8.14" width="35.72" height="35.72"/></g></g><rect class="cls-1" x="14.89" y="16.33" width="28.22" height="19.35"/><g class="cls-13"><g class="cls-14"><g class="cls-2"><g class="cls-15"><line class="cls-5" x1="33.15" y1="19.52" x2="18.85" y2="33.82"/></g></g><g class="cls-2"><g class="cls-16"><line class="cls-5" x1="33.15" y1="33.71" x2="18.85" y2="19.41"/></g></g></g></g></svg>