<svg id="Layer_1" data-name="Layer 1" xmlns="http://www.w3.org/2000/svg" xmlns:xlink="http://www.w3.org/1999/xlink" viewBox="0 0 65.4 40.1"><defs><style>.cls-1{fill:none;}.cls-2{fill:#9f0000;}.cls-3{clip-path:url(#clip-path);}.cls-4{fill:#fff;}</style><clipPath id="clip-path"><rect class="cls-1" width="65.4" height="40.1"/></clipPath></defs><title>letter_about</title><rect class="cls-2" width="65.4" height="40.1"/><g class="cls-3"><path class="cls-4" d="M9.61,7.48a3.28,3.28,0,0,0-.19,1.07V32.79a3.31,3.31,0,0,0,3.33,3.31H50.51a3.31,3.31,0,0,0,3.33-3.31V8.55a3.28,3.28,0,0,0-.19-1.07l-19,16.34a4.7,4.7,0,0,1-6.14,0Zm3.14-2.24a3.34,3.34,0,0,0-1.77.5L30,22.17a2.32,2.32,0,0,0,3.23,0L52.28,5.74a3.34,3.34,0,0,0-1.77-.5Z"/></g></svg>