<svg id="Layer_1" data-name="Layer 1" xmlns="http://www.w3.org/2000/svg" viewBox="0 0 298.58 72"><defs><style>.cls-1{fill:#d3d4d4;}.cls-2{fill:#00b2ea;}.cls-3{fill:#03576b;}</style></defs><title>letter</title><polygon class="cls-1" points="21.37 18.29 21.75 18.54 22.13 18.66 22.52 18.69 23.09 18.44 23.29 18.03 23.02 17.7 21.37 18.29"/><polygon class="cls-1" points="26.88 18.21 27.32 18.3 27.43 18.6 27.38 19.12 26.92 19.3 26.49 19.21 26.43 18.82 26.57 18.4 26.88 18.21"/><polygon class="cls-1" points="29.65 19.23 29.77 19.55 30.12 19.44 30.02 19.05 29.65 19.23"/><polygon class="cls-1" points="18.27 29.65 18.24 29.99 18.68 30.5 19.1 30.28 19.17 30.02 19.05 29.67 18.7 29.33 18.27 29.65"/><polygon class="cls-1" points="13.37 30.12 13.72 30.58 14.17 30.53 14.25 30.28 13.89 29.86 13.84 29.86 13.37 30.12"/><polygon class="cls-1" points="24.26 42.61 24.24 42.87 24.53 42.94 24.41 42.58 24.26 42.61"/><polygon class="cls-1" points="31.89 7.2 32 7.52 32.48 7.73 32.73 7.62 32.76 6.89 32.33 6.73 32.17 6.71 31.89 7.2"/><polygon class="cls-2" points="119.85 0 0 14.95 57 72 84.06 40.69 103.19 45.87 101.14 21.38 119.85 0"/><polyline class="cls-3" points="101.14 21.38 0 14.95 89.1 35.19 103.19 45.87"/><polygon class="cls-2" points="168.84 9.1 160.99 9.87 153.31 11.36 146.66 12.33 140.22 13.23 130.38 14.83 126.71 14.85 120.34 14.45 114.27 14.56 114.97 15.19 123.82 15.62 132.41 15.43 140.33 14.34 148.01 12.98 150.61 12.63 159.73 11.27 164.97 10.73 170.11 10.54 173.43 10.63 176.71 10.77 182.39 11.62 186.22 11.88 190.08 12.88 193.35 13.5 198.97 14.81 199.43 15.51 204.81 16.89 207.65 17.58 208.01 18.28 212.19 19.12 218.61 20.93 220.89 21.51 227.1 22.77 233.23 24.22 239.97 23.84 245.22 24.41 246.54 23.7 249.44 24.09 252.82 23.15 253.43 23.39 255.21 22.25 255.94 22.06 256.93 22.62 256.96 22.96 257.55 22.91 258.61 21.56 259.41 21.63 260.46 22.35 262.18 22.12 264.08 21.35 263.31 20.12 264.24 19.43 266.56 19.84 267.26 20.46 267.37 19.55 267.59 19.14 270.67 18.31 279.91 16.52 285.84 16 281.37 15.78 276.58 16.46 262.18 19.57 256.87 20.47 256.36 20.86 254.42 20.68 246.44 22.11 239.57 22.29 232.52 22.08 227.35 21.33 225.71 20.65 217.57 19.39 213.86 18.38 205.46 15.92 196.76 12.89 187.53 11.08 178.95 9.32 168.84 9.1"/><polygon class="cls-2" points="168.24 20.36 163.47 20.78 157.46 21.99 151.57 23.11 145.72 23.96 139.86 24.78 134.91 25.25 130.01 25.34 126.75 25.41 123.5 25.13 117.05 24.45 117.14 25.39 118.15 25.56 123.32 26.35 126.86 26.6 130.42 26.55 137.48 26.41 143.29 25.55 149.01 24.71 154.67 23.48 160.44 22.59 171.8 21.34 175.21 20.79 183.69 21.51 192.01 22.63 198.11 23.77 202.03 24.98 204.26 26.04 208.13 26.69 211.92 27.9 214.02 28.67 216.01 29.92 218.68 30.25 220.99 31.72 221.92 31.07 228.42 32.83 231.39 33.4 235.51 34.54 238.02 33.89 239.62 34.48 242.95 35.26 243.8 34.33 247.9 34.75 250.44 34.31 251.8 34.06 258.6 33.21 261.58 32.82 265.74 31.81 267.34 32.06 268.11 30.7 268.87 30.29 270.04 30.7 269.98 31.65 270.8 31.5 272.46 30.1 275.85 30.36 278.63 28.91 281.34 28.2 283.02 27.8 282.66 29.21 283.78 28.98 284.09 27.58 289.61 26.75 291.12 26.97 291.63 27.69 292.6 26.53 298.58 26.4 294.69 26.05 290.88 26.04 287.04 26.29 283.24 26.83 272.74 28.95 268.8 29.56 266.99 29.84 264.34 30.08 259.98 31.07 255.67 32.04 247.81 32.81 240.45 32.81 233.1 32.04 226.49 30.67 223.15 29.98 215.57 27.8 208.86 24.89 206.68 24.79 204.41 23.87 203.59 24.15 201.03 23.3 194.94 21.64 188.29 20.93 187.42 20.57 181.46 19.89 175.59 19.59 168.24 20.36"/><polygon class="cls-2" points="160.79 31.39 160.05 32.49 158.57 32.5 155.14 32.92 151.74 33.61 148.45 34.28 144.9 34.46 143.05 34.76 141.43 35.46 137.27 35.95 133.25 36.35 131.03 37.05 128.67 37.14 126.35 37.17 123.91 37.55 120.96 37.29 118.01 37.46 115.17 37.23 112.46 36.35 112.22 37.45 118.11 38.45 123.2 38.43 128.32 38.12 133.39 37.84 136.46 37.31 139.43 36.84 141.87 36.49 144.22 36.2 147.61 35.48 150.92 34.84 154.28 34.29 157.57 33.96 163.41 33.45 169.28 32.72 172.34 32.67 175.26 33.18 178.93 33.3 182.04 34.23 183.31 33.99 184.57 34.31 185.57 34.78 186.4 34.28 188.62 34.65 190.48 35.56 192.22 36.57 194.19 37.56 196.45 37.41 198.66 38.16 200.8 38.88 203.12 38.89 203.92 39.94 205.22 40.13 206.57 40.74 207.56 41.26 208.58 41.56 208.98 42.26 209.86 42.04 210.85 41.57 212.72 42.35 214.31 43.51 216.01 44.35 219.57 44.81 220.97 43.96 222.03 45.02 222.5 45.85 223.55 46.01 226.5 46.28 229.05 46.18 230.32 46.93 230.44 46.19 230.26 45.34 231.5 45.32 232.42 46.1 233.25 45.47 234.26 46.72 235.54 46.05 235.97 44.93 229.59 44.49 223.77 43.63 219.57 42.74 215.25 42 212.17 40.85 208.85 39.81 207.12 39.28 205.29 38.74 201.68 37.21 197.94 35.94 194.13 34.86 190.31 33.72 187.76 33.38 185.52 32.85 180.83 31.88 175.85 31.5 170.76 31.61 165.94 31.98 165.38 31.26 164.36 31.47 163.07 30.99 162.83 31.95 161.94 31.56 161.88 30.96 160.79 31.39"/><polygon class="cls-2" points="160.79 41.46 160.05 42.56 158.57 42.57 155.14 42.99 151.74 43.68 148.45 44.35 144.9 44.53 143.05 44.83 141.43 45.53 137.27 46.02 133.25 46.42 131.03 47.12 128.67 47.21 126.35 47.24 123.91 47.62 120.96 47.36 118.01 47.53 115.17 47.3 112.46 46.42 112.22 47.52 118.11 48.52 123.2 48.5 128.32 48.19 133.39 47.91 136.46 47.38 139.43 46.91 141.87 46.56 144.22 46.27 147.61 45.55 150.92 44.91 154.28 44.36 157.57 44.03 163.41 43.52 169.28 42.79 172.34 42.74 175.26 43.25 178.93 43.37 182.04 44.3 183.31 44.06 184.57 44.38 185.57 44.85 186.4 44.35 188.62 44.72 190.48 45.63 192.22 46.64 194.19 47.63 196.45 47.48 198.66 48.23 200.8 48.95 203.12 48.96 203.92 50.01 205.22 50.19 206.57 50.81 207.56 51.33 208.58 51.63 208.98 52.32 209.86 52.11 210.85 51.64 212.72 52.42 214.31 53.58 216.01 54.42 219.57 54.88 220.97 54.03 222.03 55.09 222.5 55.92 223.55 56.08 226.5 56.35 229.05 56.25 230.32 57 230.44 56.26 230.26 55.41 231.5 55.39 232.42 56.17 233.25 55.54 234.26 56.79 235.54 56.12 235.97 54.99 229.59 54.56 223.77 53.7 219.57 52.81 215.25 52.07 212.17 50.92 208.85 49.88 207.12 49.35 205.29 48.81 201.68 47.28 197.94 46.01 194.13 44.93 190.31 43.79 187.76 43.45 185.52 42.92 180.83 41.95 175.85 41.57 170.76 41.67 165.94 42.05 165.38 41.33 164.36 41.54 163.07 41.06 162.83 42.02 161.94 41.63 161.88 41.03 160.79 41.46"/><polygon class="cls-2" points="272.25 38.5 268.75 39.23 268.3 39.66 266.73 39.8 265 39.81 263.38 40.04 261.92 40.86 257.21 41.66 254.75 41.88 252 42.67 249.34 43.21 246.58 43.36 241.93 43.9 238.11 44.88 235.29 44.96 232.57 44.93 233.79 45.82 233.58 46.69 233.66 47.07 235.1 47 235.92 45.84 236.73 46.51 238.95 46.91 240.22 45.26 241.47 45.83 241.39 46.62 244.92 45.8 245.33 44.81 246.8 44.24 247.71 44.81 249.95 44.97 254.82 44.19 255.49 43.92 255.73 42.82 259.53 42.7 261.38 41.85 266.42 41.76 267.46 41.19 269.69 40.66 271.38 39.78 271.86 40.64 273.61 39.4 274.27 39.52 274.7 40.39 275.99 39.37 277.13 39.96 276.72 40.73 276.85 41.06 280.89 40.36 283.78 38.6 289.58 38.61 290.31 38.46 287.07 37.71 283.48 37.94 279.91 38.34 276.3 38.52 272.25 38.5"/></svg>