<svg id="Layer_2" data-name="Layer 2" xmlns="http://www.w3.org/2000/svg" viewBox="0 0 33.5 25.8"><defs><style>.cls-1{fill:#949595;}.cls-2,.cls-4{fill:none;stroke-linecap:round;}.cls-2{stroke:#fff;stroke-width:1.19px;}.cls-3{fill:#fff;}.cls-4{stroke:#949595;stroke-linejoin:round;stroke-width:1.42px;}</style></defs><title>sin-audio</title><path class="cls-1" d="M16.75,30a12.9,12.9,0,1,0-12.9-12.9A12.93,12.93,0,0,0,16.75,30" transform="translate(0 -4.21)"/><line class="cls-2" x1="13.4" y1="6.05" x2="13.4" y2="19.75"/><line class="cls-2" x1="11.2" y1="8.55" x2="11.2" y2="17.25"/><line class="cls-2" x1="15.6" y1="8.55" x2="15.6" y2="17.25"/><line class="cls-2" x1="20.3" y1="9.85" x2="20.3" y2="15.45"/><line class="cls-2" x1="22.4" y1="11.25" x2="22.4" y2="14.25"/><line class="cls-2" x1="17.9" y1="11.25" x2="17.9" y2="14.25"/><line class="cls-2" x1="9" y1="11.95" x2="9" y2="13.15"/><line class="cls-2" x1="24.5" y1="11.95" x2="24.5" y2="13.15"/><path class="cls-3" d="M33.5,17.11c0-.8-.4-1.4-.9-1.4H.9c-.5,0-.9.6-.9,1.4s.4,1.4.9,1.4H32.6c.5,0,.9-.6.9-1.4" transform="translate(0 -4.21)"/><line class="cls-4" x1="1.15" y1="12.9" x2="32.35" y2="12.9"/></svg>