<?xml version="1.0" encoding="utf-8"?>
<!-- Generator: Adobe Illustrator 21.1.0, SVG Export Plug-In . SVG Version: 6.00 Build 0)  -->
<svg version="1.1" id="Layer_1" xmlns="http://www.w3.org/2000/svg" xmlns:xlink="http://www.w3.org/1999/xlink" x="0px" y="0px"
	 viewBox="0 0 62.4 22.1" style="enable-background:new 0 0 62.4 22.1;" xml:space="preserve">
<g>
	<path d="M7.2,1.9l2.1,14.2H5.6l-0.2-2.6H4.1l-0.2,2.6H0L1.9,1.9H7.2z M5.3,11c-0.2-1.6-0.4-3.6-0.6-6C4.3,7.8,4.1,9.8,4,11H5.3z"/>
	<path d="M10,1.9h2.6c1.7,0,2.9,0.1,3.5,0.2c0.6,0.1,1.1,0.5,1.5,1c0.4,0.6,0.6,1.4,0.6,2.6c0,1.1-0.1,1.9-0.4,2.2S17,8.6,16.2,8.7
		c0.7,0.2,1.2,0.4,1.5,0.7s0.4,0.6,0.5,0.8c0.1,0.3,0.1,1,0.1,2.1v3.8h-3.4v-4.7c0-0.8-0.1-1.2-0.2-1.4s-0.4-0.3-0.9-0.3v6.4H10V1.9
		z M13.7,4.3v3.2c0.4,0,0.7-0.1,0.9-0.2c0.2-0.1,0.3-0.5,0.3-1.1V5.4c0-0.5-0.1-0.7-0.2-0.9C14.4,4.4,14.1,4.3,13.7,4.3z"/>
	<path d="M28.3,8.1h-3.7V5.6c0-0.7,0-1.2-0.1-1.3C24.4,4.1,24.2,4,24,4c-0.3,0-0.5,0.1-0.6,0.3S23.3,5,23.3,5.7v6.6
		c0,0.7,0,1.1,0.1,1.4S23.7,14,24,14c0.3,0,0.5-0.1,0.5-0.3c0.1-0.2,0.1-0.7,0.1-1.5v-1.8h3.7V11c0,1.5-0.1,2.5-0.3,3.1
		c-0.2,0.6-0.7,1.2-1.4,1.6c-0.7,0.5-1.6,0.7-2.6,0.7c-1.1,0-2-0.2-2.7-0.6s-1.2-0.9-1.4-1.6s-0.3-1.7-0.3-3.1V6.9
		c0-1,0-1.8,0.1-2.3s0.3-1,0.6-1.5c0.3-0.5,0.8-0.8,1.4-1.1s1.3-0.4,2.1-0.4c1.1,0,2,0.2,2.7,0.6s1.2,0.9,1.4,1.6s0.3,1.6,0.3,2.9
		V8.1z"/>
	<path d="M36,1.9l2.1,14.2h-3.8l-0.2-2.6h-1.3l-0.2,2.6h-3.8l1.9-14.2H36z M34.1,11c-0.2-1.6-0.4-3.6-0.6-6c-0.4,2.7-0.6,4.7-0.7,6
		H34.1z"/>
	<path d="M38.8,1.9h2.8c1.8,0,3,0.1,3.6,0.2c0.6,0.2,1.1,0.4,1.4,0.8s0.5,0.8,0.6,1.3s0.1,1.4,0.1,2.7v5c0,1.3-0.1,2.1-0.2,2.6
		s-0.3,0.8-0.6,1s-0.7,0.4-1.1,0.5s-1.1,0.1-2,0.1h-4.7V1.9z M42.5,4.3v9.4c0.5,0,0.9-0.1,1-0.3s0.2-0.8,0.2-1.7V6.1
		c0-0.6,0-1.1-0.1-1.2s-0.1-0.3-0.3-0.4S42.9,4.3,42.5,4.3z"/>
	<path d="M52.4,1.9v14.2h-3.7V1.9H52.4z"/>
	<path d="M60.3,1.9l2.1,14.2h-3.8l-0.2-2.6h-1.3l-0.2,2.6h-3.8L55,1.9H60.3z M58.4,11c-0.2-1.6-0.4-3.6-0.6-6
		c-0.4,2.7-0.6,4.7-0.7,6H58.4z"/>
</g>
</svg>
